<svg xmlns="http://www.w3.org/2000/svg" xmlns:xlink="http://www.w3.org/1999/xlink" width="73" height="73" viewBox="0 0 73 73"><defs><filter id="a" x="17" y="12" width="40" height="40" filterUnits="userSpaceOnUse"><feOffset dy="3" input="SourceAlpha"/><feGaussianBlur stdDeviation="3" result="b"/><feFlood flood-color="#fff" flood-opacity="0.161"/><feComposite operator="in" in2="b"/><feComposite in="SourceGraphic"/></filter></defs><g transform="translate(0 0)" fill="#e2e7de"><path d="M 36.31066513061523 72.121337890625 C 31.47603607177734 72.121337890625 26.78628540039063 71.17457580566406 22.37169456481934 69.30735778808594 C 18.10744476318359 67.50373840332031 14.27765560150146 64.92157745361328 10.98870468139648 61.63262939453125 C 7.699755191802979 58.34367752075195 5.117605209350586 54.51388931274414 3.313975095748901 50.24963760375977 C 1.446765184402466 45.83503723144531 0.5000051259994507 41.14529800415039 0.5000051259994507 36.3106689453125 C 0.5000051259994507 31.47603988647461 1.446765184402466 26.78628921508789 3.313975095748901 22.37168884277344 C 5.117605209350586 18.1074390411377 7.699755191802979 14.27764892578125 10.98870468139648 10.98869895935059 C 14.27765560150146 7.699748992919922 18.10744476318359 5.117599010467529 22.37169456481934 3.313968896865845 C 26.78628540039063 1.446758985519409 31.47603607177734 0.4999989569187164 36.31066513061523 0.4999989569187164 C 39.78771591186523 0.4999989569187164 43.22329330444336 0.9994089603424072 46.52196502685547 1.984368920326233 C 49.73370361328125 2.943358898162842 52.82944488525391 4.3660888671875 55.72320556640625 6.213028907775879 C 60.62494659423828 9.340568542480469 64.72954559326172 13.70768928527832 67.59333801269531 18.84229850769043 C 69.04955291748047 21.45320892333984 70.17411804199219 24.24124908447266 70.93578338623047 27.12896919250488 C 71.72245788574219 30.11147880554199 72.121337890625 33.20064926147461 72.121337890625 36.3106689453125 C 72.121337890625 41.14529800415039 71.17457580566406 45.83503723144531 69.30735778808594 50.24963760375977 C 67.50373840332031 54.51388931274414 64.92157745361328 58.34367752075195 61.63262557983398 61.63262939453125 C 58.34367370605469 64.92157745361328 54.51388549804688 67.50373840332031 50.2496337890625 69.30735778808594 C 45.83503341674805 71.17457580566406 41.14529418945313 72.121337890625 36.31066513061523 72.121337890625 Z" stroke="none"/><path d="M 36.31066513061523 1 C 31.54331588745117 1 26.91909408569336 1.9334716796875 22.56646347045898 3.774482727050781 C 18.36181640625 5.552886962890625 14.58543395996094 8.09906005859375 11.34224700927734 11.34225845336914 C 8.099052429199219 14.58544921875 5.552886962890625 18.36182022094727 3.77447509765625 22.56646728515625 C 1.933464050292969 26.91909790039063 0.9999923706054688 31.54331970214844 0.9999923706054688 36.3106689453125 C 0.9999923706054688 41.07801818847656 1.933464050292969 45.70222854614258 3.77447509765625 50.05485916137695 C 5.552886962890625 54.25950622558594 8.099052429199219 58.03588104248047 11.34224700927734 61.27907943725586 C 14.58544540405273 64.52227020263672 18.36181640625 67.06843566894531 22.56646347045898 68.84686279296875 C 26.91909408569336 70.6878662109375 31.54331588745117 71.621337890625 36.31066513061523 71.621337890625 C 41.0780143737793 71.621337890625 45.70222473144531 70.6878662109375 50.05485534667969 68.84686279296875 C 54.25950622558594 67.06843566894531 58.03587341308594 64.52227020263672 61.2790641784668 61.27907943725586 C 64.52226257324219 58.03588104248047 67.06842803955078 54.25950622558594 68.84684753417969 50.05485916137695 C 70.68785858154297 45.70222854614258 71.62132263183594 41.07801818847656 71.62132263183594 36.3106689453125 C 71.62132263183594 33.24366760253906 71.22801208496094 30.19741058349609 70.45230865478516 27.25648880004883 C 69.70131683349609 24.40921783447266 68.59249877929688 21.66021728515625 67.15665435791016 19.08584976196289 C 64.33305358886719 14.02328872680664 60.28645324707031 9.717708587646484 55.45419311523438 6.634498596191406 C 52.59954452514648 4.812530517578125 49.54617309570313 3.409187316894531 46.37890625 2.463470458984375 C 43.12668609619141 1.492378234863281 39.73923492431641 1 36.31066513061523 1 M 36.31066513061523 0 C 43.48990631103516 0 50.18250274658203 2.083526611328125 55.99220275878906 5.791557312011719 C 65.92084503173828 12.12649917602539 72.62132263183594 23.43608856201172 72.62132263183594 36.3106689453125 C 72.62132263183594 56.36447906494141 56.36447525024414 72.621337890625 36.31066513061523 72.621337890625 C 16.2568244934082 72.621337890625 -7.62939453125e-06 56.36447906494141 -7.62939453125e-06 36.3106689453125 C -7.62939453125e-06 16.25683975219727 16.2568244934082 0 36.31066513061523 0 Z" stroke="none" fill="#3fb27f"/></g><g transform="translate(3.961 3.631)" fill="#e2e7de"><path d="M 32.67959594726563 64.85919952392578 C 28.33515548706055 64.85919952392578 24.12093544006348 64.00844573974609 20.15399551391602 62.33056640625 C 16.32213592529297 60.7098274230957 12.88066577911377 58.38948440551758 9.925186157226563 55.43401718139648 C 6.969706058502197 52.47853469848633 4.649375915527344 49.03706741333008 3.028625965118408 45.20519638061523 C 1.350755929946899 41.23825454711914 0.5000059604644775 37.0240364074707 0.5000059604644775 32.67959594726563 C 0.5000059604644775 28.33515548706055 1.350755929946899 24.12093544006348 3.028625965118408 20.15399551391602 C 4.649375915527344 16.32213592529297 6.969706058502197 12.88066577911377 9.925186157226563 9.925186157226563 C 12.88066577911377 6.969706058502197 16.32213592529297 4.649375915527344 20.15399551391602 3.02863597869873 C 24.12093544006348 1.350755929946899 28.33515548706055 0.5000059604644775 32.67959594726563 0.5000059604644775 C 37.0240364074707 0.5000059604644775 41.23825454711914 1.350755929946899 45.20520782470703 3.02863597869873 C 49.03706741333008 4.649375915527344 52.47853469848633 6.969706058502197 55.43401718139648 9.925186157226563 C 58.38949584960938 12.88066577911377 60.7098274230957 16.32213592529297 62.33056640625 20.15399551391602 C 64.00844573974609 24.12093544006348 64.85919952392578 28.33515548706055 64.85919952392578 32.67959594726563 C 64.85919952392578 43.78833770751953 59.18333435058594 54.005126953125 49.67627716064453 60.00950622558594 C 47.23720550537109 61.55049514770508 44.56855773925781 62.74901580810547 41.744384765625 63.57181549072266 C 38.81228637695313 64.42605590820313 35.76244735717773 64.85919952392578 32.67959594726563 64.85919952392578 Z" stroke="none"/><path d="M 32.67959594726563 0.9999923706054688 C 28.40243530273438 0.9999923706054688 24.25374603271484 1.837455749511719 20.3487663269043 3.489124298095703 C 16.57650756835938 5.08465576171875 13.18845748901367 7.369014739990234 10.27873611450195 10.27873611450195 C 7.369014739990234 13.18845748901367 5.08465576171875 16.57650756835938 3.489124298095703 20.3487663269043 C 1.837455749511719 24.25374603271484 0.9999923706054688 28.40243530273438 0.9999923706054688 32.67959594726563 C 0.9999923706054688 36.95675659179688 1.837455749511719 41.10544586181641 3.489124298095703 45.01041412353516 C 5.08465576171875 48.78268432617188 7.369014739990234 52.17073822021484 10.27873611450195 55.0804557800293 C 13.18845748901367 57.99017715454102 16.57650756835938 60.2745246887207 20.3487663269043 61.87005615234375 C 24.25374603271484 63.52172470092773 28.40243530273438 64.35918426513672 32.67959594726563 64.35918426513672 C 35.71510314941406 64.35918426513672 38.71788787841797 63.93276596069336 41.60453796386719 63.09176635742188 C 44.38382720947266 62.28204727172852 47.00967407226563 61.10282516479492 49.40927505493164 59.58676528930664 C 58.77043533325195 53.67452621459961 64.35918426513672 43.61577606201172 64.35918426513672 32.67959594726563 C 64.35918426513672 28.40243530273438 63.52172470092773 24.25374603271484 61.87005615234375 20.3487663269043 C 60.2745246887207 16.57650756835938 57.99017715454102 13.18845748901367 55.0804557800293 10.27873611450195 C 52.17073822021484 7.369014739990234 48.78268432617188 5.08465576171875 45.01042556762695 3.489124298095703 C 41.10544586181641 1.837455749511719 36.95675659179688 0.9999923706054688 32.67959594726563 0.9999923706054688 M 32.67959594726563 -7.62939453125e-06 C 50.72805786132813 -7.62939453125e-06 65.35918426513672 14.63114547729492 65.35918426513672 32.67959594726563 C 65.35918426513672 44.32076644897461 59.27238464355469 54.54025650024414 49.94326782226563 60.43225479125977 C 45.06349563598633 63.51526641845703 39.08687591552734 65.35918426513672 32.67959594726563 65.35918426513672 C 14.63114547729492 65.35918426513672 -7.62939453125e-06 50.72804641723633 -7.62939453125e-06 32.67959594726563 C -7.62939453125e-06 14.63114547729492 14.63114547729492 -7.62939453125e-06 32.67959594726563 -7.62939453125e-06 Z" stroke="none" fill="#688159"/></g><g transform="translate(19.806 11.883)"><g transform="translate(26.071 50.468) rotate(180)" fill="#e2e7de"><path d="M 16.99365615844727 17.82491683959961 C 16.95987510681152 17.82491683959961 16.92528533935547 17.82317733764648 16.89082527160645 17.81972694396973 L 9.414825439453125 17.0721263885498 C 9.350525856018066 17.06569671630859 9.285165786743164 17.06243705749512 9.220555305480957 17.06243705749512 C 9.155936241149902 17.06243705749512 9.090576171875 17.06569671630859 9.026275634765625 17.0721263885498 L 1.550265789031982 17.81972694396973 C 1.515825748443604 17.82317733764648 1.481215715408325 17.82491683959961 1.447415709495544 17.82491683959961 C 1.104125738143921 17.82491683959961 0.7966057658195496 17.6429271697998 0.624775767326355 17.33808708190918 C 0.4517457783222198 17.03108596801758 0.4575457572937012 16.68145561218262 0.6406957507133484 16.37885665893555 L 5.120275974273682 8.977816581726074 C 5.173965930938721 8.889096260070801 5.220895767211914 8.795426368713379 5.259775638580322 8.699366569519043 L 8.337685585021973 1.095086455345154 C 8.488515853881836 0.7224664688110352 8.81855583190918 0.5000064969062805 9.220545768737793 0.5000064969062805 C 9.622535705566406 0.5000064969062805 9.952566146850586 0.7224565148353577 10.10339546203613 1.095086455345154 L 13.18132591247559 8.699376106262207 C 13.22016620635986 8.795366287231445 13.2670955657959 8.889066696166992 13.32078552246094 8.977786064147949 L 17.80039596557617 16.37885665893555 C 17.98351669311523 16.68140602111816 17.98930549621582 17.031005859375 17.81627655029297 17.3380069732666 C 17.64444541931152 17.64287567138672 17.3369255065918 17.82490730285645 16.99365615844727 17.82491683959961 Z" stroke="none"/><path d="M 9.220545768737793 0.9999961853027344 C 9.106656074523926 0.9999961853027344 8.900715827941895 1.036725997924805 8.801165580749512 1.282676696777344 L 5.723245620727539 8.886956214904785 C 5.674415588378906 9.007606506347656 5.615475654602051 9.125266075134277 5.548026084899902 9.236716270446777 L 1.068445205688477 16.63775634765625 C 0.9493064880371094 16.83459663391113 1.012235641479492 17.00720596313477 1.060356140136719 17.09257698059082 C 1.099735260009766 17.16243743896484 1.216266632080078 17.32491683959961 1.447416305541992 17.32491683959961 C 1.464666366577148 17.32491683959961 1.482564926147461 17.32400703430176 1.500514984130859 17.32220649719238 L 8.976415634155273 16.57461738586426 C 9.057175636291504 16.56653594970703 9.139315605163574 16.56243705749512 9.220545768737793 16.56243705749512 C 9.301765441894531 16.56243705749512 9.383905410766602 16.56653594970703 9.46457576751709 16.57460594177246 L 16.9405460357666 17.32220649719238 C 16.95853614807129 17.32400703430176 16.97641563415527 17.32491683959961 16.99367523193359 17.32491683959961 C 17.22475624084473 17.32491683959961 17.34130477905273 17.16240692138672 17.38068580627441 17.09253692626953 C 17.42880630493164 17.00715637207031 17.49175643920898 16.83454704284668 17.37264633178711 16.63775634765625 L 12.89301586151123 9.236656188964844 C 12.82560539245605 9.125266075134277 12.76666641235352 9.007606506347656 12.71783638000488 8.886966705322266 L 9.639915466308594 1.282686233520508 C 9.540366172790527 1.036725997924805 9.33443546295166 0.9999961853027344 9.220545768737793 0.9999961853027344 M 9.220544815063477 1.9073486328125e-06 C 9.771267890930176 1.9073486328125e-06 10.32199096679688 0.3024959564208984 10.56686592102051 0.9074859619140625 L 13.64478588104248 8.511776924133301 C 13.67380523681641 8.583476066589355 13.70850563049316 8.652736663818359 13.74855613708496 8.718916893005371 L 18.22814559936523 16.11995697021484 C 18.82118225097656 17.09975433349609 18.10023880004883 18.32491874694824 16.99367713928223 18.32491874694824 C 16.94355201721191 18.32491874694824 16.89269638061523 18.32240867614746 16.8410758972168 18.31724739074707 L 9.365076065063477 17.56964683532715 C 9.317020416259766 17.56484222412109 9.26878547668457 17.56243896484375 9.220550537109375 17.56243896484375 C 9.17231559753418 17.56243896484375 9.124080657958984 17.56484222412109 9.07602596282959 17.56964683532715 L 1.600015640258789 18.31724739074707 C 1.548467636108398 18.32240104675293 1.497470855712891 18.32491874694824 1.447414398193359 18.32491874694824 C 0.3407325744628906 18.32491874694824 -0.3801288604736328 17.09981536865234 0.2129459381103516 16.11995697021484 L 4.692525863647461 8.718916893005371 C 4.732575416564941 8.652736663818359 4.767275810241699 8.583476066589355 4.796296119689941 8.511776924133301 L 7.874216079711914 0.9074859619140625 C 8.119095802307129 0.3024959564208984 8.669820785522461 1.9073486328125e-06 9.220544815063477 1.9073486328125e-06 Z" stroke="none" fill="#3fb27f"/></g><g transform="translate(0.194 0.117)" fill="#e2e7de" stroke="#3fb27f" stroke-width="1"><circle cx="17" cy="17" r="17" stroke="none"/><circle cx="17" cy="17" r="16.5" fill="none"/></g><g transform="matrix(1, 0, 0, 1, -19.81, -11.88)" filter="url(#a)"><g transform="translate(26 18)" fill="#e2e7de" stroke="#3fb27f" stroke-width="1"><circle cx="11" cy="11" r="11" stroke="none"/><circle cx="11" cy="11" r="10.5" fill="none"/></g></g></g></svg>